<svg width="1080" height="7001" viewBox="0 0 1080 7001" fill="none" xmlns="http://www.w3.org/2000/svg">
<g clip-path="url(#clip0_1_2)">
<rect width="1080" height="7001" fill="black"/>
<path d="M530.918 6414L533.71 6418.07L538.448 6419.47L535.436 6423.39L535.572 6428.32L530.918 6426.67L526.264 6428.32L526.4 6423.39L523.388 6419.47L528.125 6418.07L530.918 6414Z" fill="white" fill-opacity="0.6"/>
<path d="M1060.48 2940L1063.47 2944.36L1068.54 2945.86L1065.32 2950.05L1065.46 2955.34L1060.48 2953.57L1055.5 2955.34L1055.64 2950.05L1052.42 2945.86L1057.49 2944.36L1060.48 2940Z" fill="white" fill-opacity="0.4"/>
<path d="M449.348 3276L451.234 3278.75L454.434 3279.7L452.399 3282.34L452.491 3285.67L449.348 3284.56L446.204 3285.67L446.296 3282.34L444.262 3279.7L447.462 3278.75L449.348 3276Z" fill="white" fill-opacity="0.5"/>
<path d="M389.068 3945L390.855 3947.61L393.888 3948.5L391.96 3951.01L392.047 3954.17L389.068 3953.11L386.089 3954.17L386.176 3951.01L384.248 3948.5L387.281 3947.61L389.068 3945Z" fill="white" fill-opacity="0.5"/>
<path d="M231.423 821L233.335 823.79L236.58 824.747L234.517 827.428L234.61 830.809L231.423 829.676L228.235 830.809L228.328 827.428L226.265 824.747L229.51 823.79L231.423 821Z" fill="white" fill-opacity="0.4"/>
<path d="M408.189 4632L410.02 4634.67L413.125 4635.59L411.151 4638.15L411.24 4641.39L408.189 4640.3L405.139 4641.39L405.228 4638.15L403.254 4635.59L406.359 4634.67L408.189 4632Z" fill="white" fill-opacity="0.6"/>
<path d="M980.129 2163L983.348 2167.7L988.811 2169.31L985.338 2173.82L985.495 2179.51L980.129 2177.61L974.763 2179.51L974.92 2173.82L971.447 2169.31L976.909 2167.7L980.129 2163Z" fill="white" fill-opacity="0.6"/>
<path d="M1028.4 6487L1030.3 6489.78L1033.53 6490.73L1031.48 6493.4L1031.57 6496.77L1028.4 6495.64L1025.23 6496.77L1025.32 6493.4L1023.26 6490.73L1026.49 6489.78L1028.4 6487Z" fill="white" fill-opacity="0.5"/>
<path d="M579.696 1281L581.705 1283.93L585.113 1284.94L582.946 1287.75L583.044 1291.3L579.696 1290.11L576.348 1291.3L576.446 1287.75L574.279 1284.94L577.687 1283.93L579.696 1281Z" fill="white" fill-opacity="0.4"/>
<path d="M977.442 6589L980.066 6592.83L984.52 6594.14L981.689 6597.82L981.816 6602.46L977.442 6600.91L973.068 6602.46L973.195 6597.82L970.364 6594.14L974.817 6592.83L977.442 6589Z" fill="white" fill-opacity="0.5"/>
<path d="M910.301 2659L912.875 2662.76L917.244 2664.04L914.467 2667.65L914.592 2672.21L910.301 2670.68L906.009 2672.21L906.135 2667.65L903.357 2664.04L907.726 2662.76L910.301 2659Z" fill="white" fill-opacity="0.4"/>
<path d="M359.13 1791L361.292 1794.15L364.961 1795.24L362.628 1798.27L362.734 1802.09L359.13 1800.81L355.527 1802.09L355.632 1798.27L353.3 1795.24L356.968 1794.15L359.13 1791Z" fill="white" fill-opacity="0.4"/>
<path d="M534.91 705L537.348 708.556L541.483 709.775L538.854 713.192L538.972 717.501L534.91 716.057L530.849 717.501L530.967 713.192L528.338 709.775L532.473 708.556L534.91 705Z" fill="white" fill-opacity="0.3"/>
<path d="M892.824 1229L895.583 1233.03L900.265 1234.41L897.289 1238.27L897.423 1243.15L892.824 1241.52L888.225 1243.15L888.359 1238.27L885.383 1234.41L890.065 1233.03L892.824 1229Z" fill="white" fill-opacity="0.6"/>
<path d="M857.762 1217L860.499 1220.99L865.144 1222.36L862.191 1226.2L862.324 1231.04L857.762 1229.42L853.2 1231.04L853.333 1226.2L850.38 1222.36L855.025 1220.99L857.762 1217Z" fill="white" fill-opacity="0.6"/>
<path d="M177.762 4105L181.205 4110.02L187.047 4111.75L183.333 4116.57L183.501 4122.66L177.762 4120.62L172.024 4122.66L172.192 4116.57L168.478 4111.75L174.32 4110.02L177.762 4105Z" fill="white" fill-opacity="0.4"/>
<path d="M707.23 1431L710.485 1435.75L716.008 1437.38L712.497 1441.94L712.655 1447.7L707.23 1445.77L701.805 1447.7L701.963 1441.94L698.452 1437.38L703.975 1435.75L707.23 1431Z" fill="white" fill-opacity="0.5"/>
<path d="M86.7168 2595L89.4384 2598.97L94.056 2600.33L91.1203 2604.15L91.2527 2608.96L86.7168 2607.35L82.181 2608.96L82.3134 2604.15L79.3777 2600.33L83.9953 2598.97L86.7168 2595Z" fill="white" fill-opacity="0.3"/>
<path d="M629.512 3233L631.809 3236.35L635.706 3237.5L633.229 3240.72L633.34 3244.78L629.512 3243.42L625.685 3244.78L625.796 3240.72L623.319 3237.5L627.216 3236.35L629.512 3233Z" fill="white" fill-opacity="0.4"/>
<path d="M626.849 1673L630.322 1678.07L636.215 1679.81L632.469 1684.67L632.638 1690.82L626.849 1688.76L621.06 1690.82L621.229 1684.67L617.482 1679.81L623.375 1678.07L626.849 1673Z" fill="white" fill-opacity="0.5"/>
<path d="M264.287 1989L267.21 1993.26L272.169 1994.73L269.017 1998.82L269.159 2003.99L264.287 2002.26L259.416 2003.99L259.558 1998.82L256.406 1994.73L261.365 1993.26L264.287 1989Z" fill="white" fill-opacity="0.4"/>
<path d="M752.998 2364L756.171 2368.63L761.555 2370.22L758.132 2374.67L758.287 2380.28L752.998 2378.4L747.709 2380.28L747.863 2374.67L744.44 2370.22L749.825 2368.63L752.998 2364Z" fill="white" fill-opacity="0.5"/>
<path d="M948.589 3293L951.265 3296.91L955.806 3298.24L952.919 3302L953.05 3306.73L948.589 3305.14L944.128 3306.73L944.258 3302L941.371 3298.24L945.913 3296.91L948.589 3293Z" fill="white" fill-opacity="0.3"/>
<path d="M853.416 497L855.679 500.302L859.518 501.433L857.077 504.606L857.187 508.607L853.416 507.266L849.645 508.607L849.755 504.606L847.314 501.433L851.153 500.302L853.416 497Z" fill="white" fill-opacity="0.6"/>
<path d="M529.64 2507L531.982 2510.42L535.955 2511.59L533.429 2514.87L533.543 2519.01L529.64 2517.62L525.737 2519.01L525.851 2514.87L523.325 2511.59L527.298 2510.42L529.64 2507Z" fill="white" fill-opacity="0.4"/>
<path d="M885.52 2101L888.172 2104.87L892.672 2106.2L889.812 2109.91L889.941 2114.6L885.52 2113.03L881.1 2114.6L881.229 2109.91L878.368 2106.2L882.868 2104.87L885.52 2101Z" fill="white" fill-opacity="0.3"/>
<path d="M986.301 6171L989.582 6175.79L995.147 6177.43L991.609 6182.03L991.768 6187.83L986.301 6185.88L980.834 6187.83L980.994 6182.03L977.455 6177.43L983.021 6175.79L986.301 6171Z" fill="white" fill-opacity="0.4"/>
<path d="M115.772 5405L118.513 5409L123.164 5410.37L120.207 5414.21L120.341 5419.06L115.772 5417.44L111.204 5419.06L111.337 5414.21L108.38 5410.37L113.031 5409L115.772 5405Z" fill="white" fill-opacity="0.4"/>
<path d="M456.844 6L459.611 10.0365L464.304 11.4202L461.32 15.2985L461.455 20.1902L456.844 18.5507L452.233 20.1902L452.368 15.2985L449.384 11.4202L454.078 10.0365L456.844 6Z" fill="white" fill-opacity="0.5"/>
<path d="M447.77 3095L450.863 3099.51L456.111 3101.06L452.775 3105.4L452.925 3110.87L447.77 3109.03L442.615 3110.87L442.766 3105.4L439.429 3101.06L444.677 3099.51L447.77 3095Z" fill="white" fill-opacity="0.4"/>
<path d="M480.361 1598L482.252 1600.76L485.46 1601.7L483.421 1604.36L483.513 1607.7L480.361 1606.58L477.21 1607.7L477.302 1604.36L475.262 1601.7L478.471 1600.76L480.361 1598Z" fill="white" fill-opacity="0.6"/>
<path d="M835.046 5543L838.236 5547.65L843.649 5549.25L840.207 5553.72L840.363 5559.36L835.046 5557.47L829.729 5559.36L829.884 5553.72L826.443 5549.25L831.856 5547.65L835.046 5543Z" fill="white" fill-opacity="0.4"/>
<path d="M517.529 171L520.185 174.874L524.69 176.203L521.826 179.925L521.955 184.62L517.529 183.047L513.104 184.62L513.233 179.925L510.369 176.203L514.874 174.874L517.529 171Z" fill="white" fill-opacity="0.5"/>
<path d="M478.886 3205L481.667 3209.06L486.386 3210.45L483.386 3214.35L483.521 3219.27L478.886 3217.62L474.251 3219.27L474.386 3214.35L471.386 3210.45L476.105 3209.06L478.886 3205Z" fill="white" fill-opacity="0.4"/>
<path d="M640.24 5217L642.088 5219.7L645.224 5220.62L643.23 5223.21L643.32 5226.48L640.24 5225.38L637.16 5226.48L637.25 5223.21L635.256 5220.62L638.392 5219.7L640.24 5217Z" fill="white" fill-opacity="0.6"/>
<path d="M534.616 6613L536.949 6616.4L540.908 6617.57L538.391 6620.84L538.504 6624.97L534.616 6623.59L530.727 6624.97L530.841 6620.84L528.324 6617.57L532.283 6616.4L534.616 6613Z" fill="white" fill-opacity="0.4"/>
<path d="M1018.17 6952L1021.05 6956.2L1025.94 6957.65L1022.83 6961.69L1022.97 6966.78L1018.17 6965.07L1013.37 6966.78L1013.51 6961.69L1010.4 6957.65L1015.29 6956.2L1018.17 6952Z" fill="white" fill-opacity="0.4"/>
<path d="M188.161 4340L189.981 4342.66L193.069 4343.57L191.106 4346.12L191.195 4349.34L188.161 4348.26L185.127 4349.34L185.216 4346.12L183.253 4343.57L186.341 4342.66L188.161 4340Z" fill="white" fill-opacity="0.5"/>
<path d="M1062.59 4637L1064.57 4639.88L1067.92 4640.87L1065.79 4643.63L1065.88 4647.12L1062.59 4645.95L1059.31 4647.12L1059.4 4643.63L1057.27 4640.87L1060.62 4639.88L1062.59 4637Z" fill="white" fill-opacity="0.5"/>
<path d="M592.135 649L593.946 651.642L597.019 652.548L595.065 655.087L595.153 658.289L592.135 657.216L589.117 658.289L589.205 655.087L587.251 652.548L590.324 651.642L592.135 649Z" fill="white" fill-opacity="0.4"/>
<path d="M1077.43 6636L1079.69 6639.31L1083.54 6640.44L1081.09 6643.62L1081.2 6647.63L1077.43 6646.28L1073.65 6647.63L1073.76 6643.62L1071.31 6640.44L1075.16 6639.31L1077.43 6636Z" fill="white" fill-opacity="0.6"/>
<path d="M329.308 6749L332.238 6753.28L337.21 6754.74L334.049 6758.85L334.192 6764.03L329.308 6762.29L324.425 6764.03L324.567 6758.85L321.407 6754.74L326.378 6753.28L329.308 6749Z" fill="white" fill-opacity="0.3"/>
<path d="M770.256 1689L772.815 1692.73L777.157 1694.01L774.397 1697.6L774.521 1702.13L770.256 1700.61L765.991 1702.13L766.116 1697.6L763.355 1694.01L767.697 1692.73L770.256 1689Z" fill="white" fill-opacity="0.5"/>
<path d="M942.418 3207L945.034 3210.82L949.473 3212.13L946.651 3215.79L946.778 3220.42L942.418 3218.87L938.058 3220.42L938.185 3215.79L935.363 3212.13L939.802 3210.82L942.418 3207Z" fill="white" fill-opacity="0.6"/>
<path d="M709.011 2011L710.778 2013.58L713.776 2014.46L711.87 2016.94L711.956 2020.06L709.011 2019.02L706.066 2020.06L706.151 2016.94L704.245 2014.46L707.244 2013.58L709.011 2011Z" fill="white" fill-opacity="0.3"/>
<path d="M571.323 6231L574.611 6235.8L580.19 6237.44L576.643 6242.05L576.803 6247.87L571.323 6245.92L565.843 6247.87L566.003 6242.05L562.456 6237.44L568.035 6235.8L571.323 6231Z" fill="white" fill-opacity="0.4"/>
<path d="M134.981 4236L138.149 4240.62L143.523 4242.21L140.106 4246.65L140.26 4252.25L134.981 4250.37L129.702 4252.25L129.856 4246.65L126.44 4242.21L131.814 4240.62L134.981 4236Z" fill="white" fill-opacity="0.3"/>
<path d="M202.141 2058L205.012 2062.19L209.883 2063.63L206.786 2067.65L206.926 2072.73L202.141 2071.03L197.356 2072.73L197.495 2067.65L194.398 2063.63L199.27 2062.19L202.141 2058Z" fill="white" fill-opacity="0.5"/>
<path d="M548.505 824L550.799 827.347L554.691 828.495L552.216 831.711L552.328 835.767L548.505 834.407L544.681 835.767L544.793 831.711L542.318 828.495L546.211 827.347L548.505 824Z" fill="white" fill-opacity="0.4"/>
<path d="M635.517 3557L638.169 3560.87L642.667 3562.19L639.807 3565.91L639.936 3570.6L635.517 3569.03L631.099 3570.6L631.228 3565.91L628.368 3562.19L632.866 3560.87L635.517 3557Z" fill="white" fill-opacity="0.5"/>
<path d="M947.217 5208L949.762 5211.71L954.081 5212.99L951.335 5216.55L951.459 5221.06L947.217 5219.55L942.975 5221.06L943.099 5216.55L940.353 5212.99L944.672 5211.71L947.217 5208Z" fill="white" fill-opacity="0.4"/>
<path d="M646.735 6858L649.111 6861.47L653.141 6862.65L650.579 6865.98L650.695 6870.18L646.735 6868.78L642.776 6870.18L642.892 6865.98L640.33 6862.65L644.36 6861.47L646.735 6858Z" fill="white" fill-opacity="0.4"/>
<path d="M606.582 2256L609.609 2260.42L614.744 2261.93L611.48 2266.17L611.627 2271.53L606.582 2269.73L601.538 2271.53L601.685 2266.17L598.42 2261.93L603.556 2260.42L606.582 2256Z" fill="white" fill-opacity="0.5"/>
<path d="M461.517 724L463.815 727.354L467.715 728.503L465.236 731.725L465.347 735.789L461.517 734.427L457.686 735.789L457.798 731.725L455.319 728.503L459.219 727.354L461.517 724Z" fill="white" fill-opacity="0.6"/>
<path d="M550.725 1146L554.155 1151L559.975 1152.72L556.275 1157.53L556.442 1163.59L550.725 1161.56L545.009 1163.59L545.176 1157.53L541.476 1152.72L547.296 1151L550.725 1146Z" fill="white" fill-opacity="0.6"/>
<path d="M1030.28 63L1032.14 65.7172L1035.3 66.6486L1033.29 69.2593L1033.38 72.5522L1030.28 71.4485L1027.18 72.5522L1027.27 69.2593L1025.26 66.6486L1028.42 65.7172L1030.28 63Z" fill="white" fill-opacity="0.4"/>
<path d="M459.909 6165L463.403 6170.1L469.332 6171.85L465.563 6176.75L465.733 6182.92L459.909 6180.85L454.084 6182.92L454.254 6176.75L450.485 6171.85L456.414 6170.1L459.909 6165Z" fill="white" fill-opacity="0.5"/>
<path d="M359.74 747L362.823 751.498L368.052 753.039L364.728 757.361L364.877 762.811L359.74 760.984L354.603 762.811L354.753 757.361L351.428 753.039L356.658 751.498L359.74 747Z" fill="white" fill-opacity="0.5"/>
<path d="M1026.85 5844L1029.61 5848.04L1034.31 5849.42L1031.32 5853.3L1031.46 5858.2L1026.85 5856.56L1022.23 5858.2L1022.37 5853.3L1019.38 5849.42L1024.08 5848.04L1026.85 5844Z" fill="white" fill-opacity="0.5"/>
<path d="M176.791 5003L180.244 5008.04L186.103 5009.77L182.378 5014.61L182.546 5020.71L176.791 5018.67L171.036 5020.71L171.204 5014.61L167.479 5009.77L173.338 5008.04L176.791 5003Z" fill="white" fill-opacity="0.4"/>
<path d="M657.639 2430L661.038 2434.96L666.806 2436.66L663.139 2441.43L663.304 2447.44L657.639 2445.42L651.973 2447.44L652.139 2441.43L648.472 2436.66L654.239 2434.96L657.639 2430Z" fill="white" fill-opacity="0.6"/>
<path d="M904.648 2437L906.64 2439.91L910.02 2440.9L907.871 2443.7L907.968 2447.22L904.648 2446.04L901.328 2447.22L901.425 2443.7L899.276 2440.9L902.656 2439.91L904.648 2437Z" fill="white" fill-opacity="0.3"/>
<path d="M708.44 239L710.358 241.799L713.613 242.759L711.544 245.448L711.637 248.84L708.44 247.703L705.242 248.84L705.336 245.448L703.266 242.759L706.521 241.799L708.44 239Z" fill="white" fill-opacity="0.4"/>
<path d="M875.703 5875L878.773 5879.48L883.98 5881.01L880.67 5885.32L880.819 5890.74L875.703 5888.93L870.588 5890.74L870.737 5885.32L867.426 5881.01L872.634 5879.48L875.703 5875Z" fill="white" fill-opacity="0.4"/>
<path d="M1072.91 6088L1075.69 6092.07L1080.43 6093.46L1077.42 6097.37L1077.55 6102.3L1072.91 6100.65L1068.26 6102.3L1068.39 6097.37L1065.39 6093.46L1070.12 6092.07L1072.91 6088Z" fill="white" fill-opacity="0.4"/>
<path d="M276.141 6262L278.66 6265.67L282.933 6266.93L280.217 6270.47L280.339 6274.92L276.141 6273.43L271.944 6274.92L272.066 6270.47L269.35 6266.93L273.623 6265.67L276.141 6262Z" fill="white" fill-opacity="0.4"/>
<path d="M993.298 1396L996.224 1400.27L1001.19 1401.73L998.033 1405.84L998.175 1411.01L993.298 1409.28L988.421 1411.01L988.563 1405.84L985.406 1401.73L990.371 1400.27L993.298 1396Z" fill="white" fill-opacity="0.5"/>
<path d="M1068.66 1074L1070.66 1076.91L1074.04 1077.91L1071.89 1080.71L1071.99 1084.24L1068.66 1083.06L1065.33 1084.24L1065.43 1080.71L1063.28 1077.91L1066.66 1076.91L1068.66 1074Z" fill="white" fill-opacity="0.4"/>
<path d="M892.631 3394L895.322 3397.93L899.888 3399.27L896.985 3403.05L897.116 3407.8L892.631 3406.21L888.146 3407.8L888.276 3403.05L885.373 3399.27L889.94 3397.93L892.631 3394Z" fill="white" fill-opacity="0.6"/>
<path d="M815.315 418L817.543 421.25L821.322 422.364L818.919 425.486L819.028 429.425L815.315 428.105L811.603 429.425L811.712 425.486L809.309 422.364L813.088 421.25L815.315 418Z" fill="white" fill-opacity="0.5"/>
<path d="M98.2678 5187L100.478 5190.23L104.229 5191.33L101.844 5194.43L101.952 5198.34L98.2678 5197.03L94.5837 5198.34L94.6912 5194.43L92.3068 5191.33L96.0573 5190.23L98.2678 5187Z" fill="white" fill-opacity="0.5"/>
<path d="M1071.66 6929L1074.71 6933.46L1079.89 6934.98L1076.6 6939.26L1076.75 6944.66L1071.66 6942.85L1066.57 6944.66L1066.72 6939.26L1063.42 6934.98L1068.6 6933.46L1071.66 6929Z" fill="white" fill-opacity="0.6"/>
<path d="M86.3506 6685L89.6483 6689.81L95.2435 6691.46L91.6863 6696.08L91.8467 6701.92L86.3506 6699.96L80.8544 6701.92L81.0148 6696.08L77.4577 6691.46L83.0529 6689.81L86.3506 6685Z" fill="white" fill-opacity="0.6"/>
<path d="M339.078 890L342.279 894.671L347.711 896.272L344.257 900.761L344.413 906.421L339.078 904.524L333.742 906.421L333.898 900.761L330.444 896.272L335.876 894.671L339.078 890Z" fill="white" fill-opacity="0.5"/>
<path d="M459.971 4042L462.077 4045.07L465.65 4046.13L463.378 4049.08L463.481 4052.8L459.971 4051.55L456.461 4052.8L456.564 4049.08L454.292 4046.13L457.865 4045.07L459.971 4042Z" fill="white" fill-opacity="0.3"/>
<path d="M584.8 2395L587.551 2399.01L592.218 2400.39L589.251 2404.25L589.385 2409.11L584.8 2407.48L580.215 2409.11L580.349 2404.25L577.382 2400.39L582.049 2399.01L584.8 2395Z" fill="white" fill-opacity="0.5"/>
<path d="M907.092 1297L908.888 1299.62L911.934 1300.52L909.997 1303.04L910.085 1306.21L907.092 1305.15L904.099 1306.21L904.186 1303.04L902.249 1300.52L905.296 1299.62L907.092 1297Z" fill="white" fill-opacity="0.5"/>
<path d="M118.074 6693L120.569 6696.64L124.802 6697.89L122.111 6701.39L122.233 6705.8L118.074 6704.32L113.916 6705.8L114.037 6701.39L111.346 6697.89L115.579 6696.64L118.074 6693Z" fill="white" fill-opacity="0.5"/>
<path d="M415.735 3516L419.168 3521.01L424.993 3522.73L421.29 3527.54L421.457 3533.61L415.735 3531.58L410.013 3533.61L410.18 3527.54L406.476 3522.73L412.302 3521.01L415.735 3516Z" fill="white" fill-opacity="0.6"/>
<path d="M988.748 1098L990.775 1100.96L994.214 1101.97L992.028 1104.81L992.126 1108.4L988.748 1107.2L985.369 1108.4L985.468 1104.81L983.281 1101.97L986.721 1100.96L988.748 1098Z" fill="white" fill-opacity="0.6"/>
<path d="M39.3297 3892L42.62 3896.8L48.2027 3898.45L44.6535 3903.06L44.8135 3908.88L39.3297 3906.93L33.8458 3908.88L34.0058 3903.06L30.4566 3898.45L36.0394 3896.8L39.3297 3892Z" fill="white" fill-opacity="0.5"/>
<path d="M98.6131 911L100.593 913.888L103.951 914.879L101.816 917.654L101.912 921.154L98.6131 919.981L95.3138 921.154L95.4101 917.654L93.2747 914.879L96.6335 913.888L98.6131 911Z" fill="white" fill-opacity="0.3"/>
<path d="M461.525 5677L464.178 5680.87L468.681 5682.2L465.818 5685.92L465.947 5690.61L461.525 5689.04L457.102 5690.61L457.231 5685.92L454.368 5682.2L458.871 5680.87L461.525 5677Z" fill="white" fill-opacity="0.6"/>
<path d="M850.372 2879L853.324 2883.31L858.334 2884.78L855.149 2888.92L855.292 2894.14L850.372 2892.39L845.451 2894.14L845.595 2888.92L842.41 2884.78L847.419 2883.31L850.372 2879Z" fill="white" fill-opacity="0.3"/>
<path d="M1022.31 3499L1024.89 3502.76L1029.26 3504.05L1026.48 3507.66L1026.6 3512.22L1022.31 3510.69L1018.01 3512.22L1018.14 3507.66L1015.36 3504.05L1019.73 3502.76L1022.31 3499Z" fill="white" fill-opacity="0.6"/>
<path d="M323.541 3161L326.554 3165.4L331.664 3166.9L328.415 3171.12L328.562 3176.45L323.541 3174.67L318.521 3176.45L318.667 3171.12L315.418 3166.9L320.529 3165.4L323.541 3161Z" fill="white" fill-opacity="0.4"/>
<path d="M689.672 3499L693.083 3503.98L698.87 3505.68L695.191 3510.46L695.356 3516.5L689.672 3514.47L683.987 3516.5L684.153 3510.46L680.473 3505.68L686.261 3503.98L689.672 3499Z" fill="white" fill-opacity="0.6"/>
<path d="M872.637 645L876.036 649.959L881.803 651.659L878.137 656.424L878.302 662.434L872.637 660.42L866.973 662.434L867.138 656.424L863.472 651.659L869.239 649.959L872.637 645Z" fill="white" fill-opacity="0.4"/>
<path d="M7.00786 3683L9.47933 3686.61L13.6727 3687.84L11.0068 3691.31L11.127 3695.68L7.00786 3694.21L2.88874 3695.68L3.00894 3691.31L0.342989 3687.84L4.53639 3686.61L7.00786 3683Z" fill="white" fill-opacity="0.5"/>
<path d="M553.932 5584L557.083 5588.6L562.428 5590.17L559.03 5594.59L559.183 5600.16L553.932 5598.29L548.682 5600.16L548.835 5594.59L545.437 5590.17L550.782 5588.6L553.932 5584Z" fill="white" fill-opacity="0.5"/>
<path d="M433.605 6846L435.935 6849.4L439.887 6850.56L437.375 6853.83L437.488 6857.95L433.605 6856.57L429.723 6857.95L429.836 6853.83L427.323 6850.56L431.276 6849.4L433.605 6846Z" fill="white" fill-opacity="0.4"/>
<path d="M324.19 2346L327.078 2350.21L331.979 2351.66L328.863 2355.71L329.004 2360.82L324.19 2359.1L319.376 2360.82L319.516 2355.71L316.401 2351.66L321.302 2350.21L324.19 2346Z" fill="white" fill-opacity="0.4"/>
<path d="M84.2069 624L86.0432 626.679L89.1589 627.598L87.1781 630.172L87.2674 633.419L84.2069 632.331L81.1464 633.419L81.2357 630.172L79.2548 627.598L82.3706 626.679L84.2069 624Z" fill="white" fill-opacity="0.5"/>
<path d="M595.144 1662L597.31 1665.16L600.986 1666.25L598.649 1669.28L598.755 1673.11L595.144 1671.83L591.532 1673.11L591.638 1669.28L589.301 1666.25L592.977 1665.16L595.144 1662Z" fill="white" fill-opacity="0.3"/>
<path d="M966.486 670L969.126 673.852L973.605 675.173L970.757 678.874L970.886 683.542L966.486 681.977L962.086 683.542L962.214 678.874L959.366 675.173L963.846 673.852L966.486 670Z" fill="white" fill-opacity="0.5"/>
<path d="M137.309 3404L139.534 3407.25L143.309 3408.36L140.909 3411.48L141.017 3415.41L137.309 3414.09L133.601 3415.41L133.709 3411.48L131.309 3408.36L135.084 3407.25L137.309 3404Z" fill="white" fill-opacity="0.4"/>
<path d="M489.447 1124L491.721 1127.32L495.579 1128.46L493.126 1131.64L493.237 1135.66L489.447 1134.32L485.658 1135.66L485.768 1131.64L483.316 1128.46L487.174 1127.32L489.447 1124Z" fill="white" fill-opacity="0.4"/>
<path d="M386.228 2198L388.425 2201.21L392.152 2202.3L389.783 2205.38L389.89 2209.27L386.228 2207.97L382.567 2209.27L382.674 2205.38L380.305 2202.3L384.032 2201.21L386.228 2198Z" fill="white" fill-opacity="0.3"/>
<path d="M1056.93 709L1060.08 713.595L1065.42 715.17L1062.03 719.585L1062.18 725.154L1056.93 723.288L1051.68 725.154L1051.83 719.585L1048.44 715.17L1053.78 713.595L1056.93 709Z" fill="white" fill-opacity="0.3"/>
<path d="M609.002 2259L612.177 2263.63L617.563 2265.22L614.139 2269.67L614.293 2275.28L609.002 2273.4L603.711 2275.28L603.865 2269.67L600.441 2265.22L605.827 2263.63L609.002 2259Z" fill="white" fill-opacity="0.4"/>
<path d="M545.462 5121L547.741 5124.33L551.608 5125.47L549.15 5128.66L549.261 5132.69L545.462 5131.34L541.664 5132.69L541.775 5128.66L539.316 5125.47L543.183 5124.33L545.462 5121Z" fill="white" fill-opacity="0.4"/>
<path d="M344.081 6664L346.931 6668.16L351.767 6669.58L348.693 6673.58L348.832 6678.62L344.081 6676.93L339.331 6678.62L339.47 6673.58L336.396 6669.58L341.231 6668.16L344.081 6664Z" fill="white" fill-opacity="0.5"/>
<path d="M970.759 837L973.142 840.478L977.186 841.67L974.615 845.012L974.731 849.226L970.759 847.814L966.786 849.226L966.902 845.012L964.331 841.67L968.375 840.478L970.759 837Z" fill="white" fill-opacity="0.4"/>
<path d="M1023.01 6456L1026.19 6460.64L1031.58 6462.23L1028.15 6466.68L1028.3 6472.3L1023.01 6470.41L1017.71 6472.3L1017.87 6466.68L1014.44 6462.23L1019.83 6460.64L1023.01 6456Z" fill="white" fill-opacity="0.5"/>
<path d="M943.992 1141L946.106 1144.08L949.691 1145.14L947.412 1148.1L947.514 1151.84L943.992 1150.59L940.47 1151.84L940.573 1148.1L938.293 1145.14L941.879 1144.08L943.992 1141Z" fill="white" fill-opacity="0.6"/>
<path d="M187.744 3713L190.828 3717.5L196.061 3719.04L192.734 3723.37L192.884 3728.82L187.744 3726.99L182.605 3728.82L182.755 3723.37L179.428 3719.04L184.66 3717.5L187.744 3713Z" fill="white" fill-opacity="0.3"/>
<path d="M276.066 4248L278.91 4252.15L283.737 4253.57L280.668 4257.56L280.807 4262.59L276.066 4260.91L271.325 4262.59L271.463 4257.56L268.395 4253.57L273.221 4252.15L276.066 4248Z" fill="white" fill-opacity="0.4"/>
<path d="M996.255 3102L999.166 3106.25L1004.11 3107.7L1000.97 3111.79L1001.11 3116.93L996.255 3115.21L991.403 3116.93L991.544 3111.79L988.404 3107.7L993.344 3106.25L996.255 3102Z" fill="white" fill-opacity="0.3"/>
<path d="M368.416 5068L370.326 5070.79L373.566 5071.74L371.506 5074.42L371.599 5077.8L368.416 5076.67L365.232 5077.8L365.325 5074.42L363.265 5071.74L366.506 5070.79L368.416 5068Z" fill="white" fill-opacity="0.5"/>
<path d="M1072.15 5319L1074.33 5322.17L1078.01 5323.25L1075.67 5326.3L1075.77 5330.13L1072.15 5328.85L1068.54 5330.13L1068.64 5326.3L1066.3 5323.25L1069.98 5322.17L1072.15 5319Z" fill="white" fill-opacity="0.5"/>
<path d="M760.557 4171L762.87 4174.37L766.794 4175.53L764.299 4178.77L764.412 4182.86L760.557 4181.49L756.703 4182.86L756.816 4178.77L754.321 4175.53L758.245 4174.37L760.557 4171Z" fill="white" fill-opacity="0.6"/>
<path d="M486.765 3768L489.151 3771.48L493.2 3772.67L490.626 3776.02L490.742 3780.24L486.765 3778.82L482.789 3780.24L482.905 3776.02L480.331 3772.67L484.379 3771.48L486.765 3768Z" fill="white" fill-opacity="0.4"/>
<path d="M215.267 6172L217.124 6174.71L220.276 6175.64L218.272 6178.24L218.363 6181.53L215.267 6180.43L212.171 6181.53L212.261 6178.24L210.258 6175.64L213.409 6174.71L215.267 6172Z" fill="white" fill-opacity="0.5"/>
<path d="M511.962 2099L514.417 2102.58L518.583 2103.81L515.934 2107.25L516.054 2111.59L511.962 2110.14L507.87 2111.59L507.989 2107.25L505.341 2103.81L509.506 2102.58L511.962 2099Z" fill="white" fill-opacity="0.5"/>
<path d="M622.88 4630L625.307 4633.54L629.424 4634.75L626.807 4638.16L626.925 4642.45L622.88 4641.01L618.836 4642.45L618.954 4638.16L616.337 4634.75L620.454 4633.54L622.88 4630Z" fill="white" fill-opacity="0.5"/>
<path d="M466.566 5836L469.235 5839.89L473.762 5841.23L470.884 5844.97L471.013 5849.69L466.566 5848.11L462.119 5849.69L462.249 5844.97L459.37 5841.23L463.898 5839.89L466.566 5836Z" fill="white" fill-opacity="0.6"/>
<path d="M87.4397 5636L90.7689 5640.86L96.4174 5642.52L92.8264 5647.19L92.9883 5653.08L87.4397 5651.1L81.8912 5653.08L82.0531 5647.19L78.462 5642.52L84.1106 5640.86L87.4397 5636Z" fill="white" fill-opacity="0.4"/>
<path d="M585.712 1455L588.079 1458.45L592.096 1459.64L589.543 1462.96L589.658 1467.14L585.712 1465.74L581.767 1467.14L581.882 1462.96L579.329 1459.64L583.345 1458.45L585.712 1455Z" fill="white" fill-opacity="0.5"/>
<path d="M731.368 6763L734.672 6767.82L740.278 6769.47L736.714 6774.11L736.875 6779.95L731.368 6777.99L725.862 6779.95L726.023 6774.11L722.459 6769.47L728.064 6767.82L731.368 6763Z" fill="white" fill-opacity="0.6"/>
<path d="M664.477 4866L667.82 4870.88L673.491 4872.55L669.885 4877.23L670.048 4883.14L664.477 4881.16L658.907 4883.14L659.069 4877.23L655.464 4872.55L661.135 4870.88L664.477 4866Z" fill="white" fill-opacity="0.4"/>
<path d="M749.979 4223L753.145 4227.62L758.518 4229.2L755.102 4233.64L755.256 4239.24L749.979 4237.37L744.701 4239.24L744.855 4233.64L741.439 4229.2L746.812 4227.62L749.979 4223Z" fill="white" fill-opacity="0.5"/>
<path d="M639.341 6467L642.635 6471.81L648.225 6473.45L644.671 6478.07L644.832 6483.9L639.341 6481.95L633.851 6483.9L634.011 6478.07L630.457 6473.45L636.047 6471.81L639.341 6467Z" fill="white" fill-opacity="0.6"/>
<path d="M472.014 3913L473.782 3915.58L476.782 3916.46L474.875 3918.94L474.961 3922.07L472.014 3921.02L469.067 3922.07L469.153 3918.94L467.245 3916.46L470.246 3915.58L472.014 3913Z" fill="white" fill-opacity="0.6"/>
<path d="M1063.92 3654L1066.72 3658.08L1071.46 3659.48L1068.45 3663.39L1068.58 3668.34L1063.92 3666.68L1059.27 3668.34L1059.4 3663.39L1056.39 3659.48L1061.13 3658.08L1063.92 3654Z" fill="white" fill-opacity="0.4"/>
<path d="M1054.08 2286L1055.87 2288.61L1058.91 2289.51L1056.98 2292.02L1057.06 2295.19L1054.08 2294.12L1051.09 2295.19L1051.18 2292.02L1049.25 2289.51L1052.29 2288.61L1054.08 2286Z" fill="white" fill-opacity="0.5"/>
<path d="M1011.51 6797L1014.86 6801.89L1020.56 6803.57L1016.94 6808.27L1017.1 6814.2L1011.51 6812.22L1005.92 6814.2L1006.08 6808.27L1002.47 6803.57L1008.16 6801.89L1011.51 6797Z" fill="white" fill-opacity="0.6"/>
<path d="M881.678 1974L884.034 1977.44L888.03 1978.61L885.489 1981.92L885.604 1986.08L881.678 1984.69L877.753 1986.08L877.867 1981.92L875.327 1978.61L879.323 1977.44L881.678 1974Z" fill="white" fill-opacity="0.5"/>
<path d="M843.869 53L846.644 57.0491L851.352 58.4371L848.359 62.3275L848.494 67.2344L843.869 65.5898L839.244 67.2344L839.379 62.3275L836.385 58.4371L841.094 57.0491L843.869 53Z" fill="white" fill-opacity="0.3"/>
<path d="M376.644 4591L378.635 4593.9L382.012 4594.9L379.865 4597.69L379.962 4601.21L376.644 4600.03L373.327 4601.21L373.423 4597.69L371.276 4594.9L374.654 4593.9L376.644 4591Z" fill="white" fill-opacity="0.5"/>
<path d="M609.887 4810L612.316 4813.54L616.438 4814.76L613.818 4818.16L613.936 4822.46L609.887 4821.02L605.839 4822.46L605.957 4818.16L603.337 4814.76L607.458 4813.54L609.887 4810Z" fill="white" fill-opacity="0.4"/>
<path d="M829.311 3874L831.537 3877.25L835.313 3878.36L832.912 3881.48L833.021 3885.42L829.311 3884.1L825.601 3885.42L825.71 3881.48L823.309 3878.36L827.085 3877.25L829.311 3874Z" fill="white" fill-opacity="0.6"/>
<path d="M818.942 6337L821.391 6340.57L825.545 6341.8L822.904 6345.23L823.023 6349.56L818.942 6348.11L814.862 6349.56L814.981 6345.23L812.34 6341.8L816.494 6340.57L818.942 6337Z" fill="white" fill-opacity="0.4"/>
<path d="M943.389 178L945.643 181.288L949.466 182.415L947.035 185.574L947.145 189.558L943.389 188.223L939.634 189.558L939.743 185.574L937.313 182.415L941.136 181.288L943.389 178Z" fill="white" fill-opacity="0.4"/>
<path d="M759.236 5274L762.141 5278.24L767.07 5279.69L763.936 5283.76L764.078 5288.9L759.236 5287.18L754.395 5288.9L754.536 5283.76L751.403 5279.69L756.332 5278.24L759.236 5274Z" fill="white" fill-opacity="0.6"/>
<path d="M69.5342 3496L72.5439 3500.39L77.6506 3501.9L74.404 3506.12L74.5504 3511.44L69.5342 3509.65L64.5179 3511.44L64.6643 3506.12L61.4177 3501.9L66.5244 3500.39L69.5342 3496Z" fill="white" fill-opacity="0.6"/>
<path d="M869.251 3432L871.103 3434.7L874.246 3435.63L872.248 3438.23L872.338 3441.5L869.251 3440.4L866.165 3441.5L866.255 3438.23L864.257 3435.63L867.399 3434.7L869.251 3432Z" fill="white" fill-opacity="0.5"/>
<path d="M683.018 5880L685.493 5883.61L689.693 5884.85L687.023 5888.32L687.143 5892.7L683.018 5891.23L678.893 5892.7L679.013 5888.32L676.343 5884.85L680.543 5883.61L683.018 5880Z" fill="white" fill-opacity="0.6"/>
<path d="M533.667 5605L535.666 5607.92L539.057 5608.92L536.901 5611.72L536.998 5615.25L533.667 5614.07L530.336 5615.25L530.433 5611.72L528.277 5608.92L531.669 5607.92L533.667 5605Z" fill="white" fill-opacity="0.5"/>
<path d="M705.03 4214L707.862 4218.13L712.668 4219.55L709.613 4223.52L709.751 4228.53L705.03 4226.85L700.31 4228.53L700.448 4223.52L697.393 4219.55L702.198 4218.13L705.03 4214Z" fill="white" fill-opacity="0.6"/>
<path d="M887.327 2127L889.558 2130.26L893.343 2131.37L890.937 2134.5L891.045 2138.44L887.327 2137.12L883.608 2138.44L883.716 2134.5L881.31 2131.37L885.095 2130.26L887.327 2127Z" fill="white" fill-opacity="0.5"/>
<path d="M433.205 39L435.394 42.1932L439.107 43.2878L436.746 46.356L436.853 50.2257L433.205 48.9287L429.558 50.2257L429.664 46.356L427.304 43.2878L431.017 42.1932L433.205 39Z" fill="white" fill-opacity="0.5"/>
<path d="M899.347 1223L902.643 1227.81L908.236 1229.46L904.681 1234.08L904.841 1239.91L899.347 1237.96L893.853 1239.91L894.013 1234.08L890.457 1229.46L896.051 1227.81L899.347 1223Z" fill="white" fill-opacity="0.5"/>
<path d="M66.3925 3100L68.647 3103.29L72.4722 3104.42L70.0403 3107.58L70.15 3111.56L66.3925 3110.23L62.6351 3111.56L62.7447 3107.58L60.3129 3104.42L64.1381 3103.29L66.3925 3100Z" fill="white" fill-opacity="0.5"/>
<path d="M558.637 5967L561.683 5971.44L566.852 5972.97L563.566 5977.24L563.714 5982.62L558.637 5980.82L553.56 5982.62L553.709 5977.24L550.423 5972.97L555.591 5971.44L558.637 5967Z" fill="white" fill-opacity="0.3"/>
<path d="M1050.94 3708L1053.04 3711.06L1056.6 3712.11L1054.34 3715.05L1054.44 3718.75L1050.94 3717.51L1047.45 3718.75L1047.55 3715.05L1045.29 3712.11L1048.85 3711.06L1050.94 3708Z" fill="white" fill-opacity="0.6"/>
<path d="M270.298 1492L272.519 1495.24L276.287 1496.35L273.891 1499.47L273.999 1503.39L270.298 1502.08L266.596 1503.39L266.704 1499.47L264.308 1496.35L268.077 1495.24L270.298 1492Z" fill="white" fill-opacity="0.6"/>
<path d="M506.872 2906L509.296 2909.54L513.408 2910.75L510.794 2914.15L510.912 2918.43L506.872 2917L502.833 2918.43L502.951 2914.15L500.336 2910.75L504.449 2909.54L506.872 2906Z" fill="white" fill-opacity="0.6"/>
<path d="M785.713 525L788.432 528.969L793.048 530.329L790.114 534.142L790.246 538.952L785.713 537.34L781.179 538.952L781.311 534.142L778.377 530.329L782.993 528.969L785.713 525Z" fill="white" fill-opacity="0.6"/>
<path d="M285.066 6887L287.558 6890.64L291.786 6891.88L289.098 6895.38L289.219 6899.78L285.066 6898.31L280.913 6899.78L281.034 6895.38L278.346 6891.88L282.574 6890.64L285.066 6887Z" fill="white" fill-opacity="0.5"/>
<path d="M548.852 1525L551.622 1529.04L556.321 1530.43L553.333 1534.31L553.468 1539.21L548.852 1537.56L544.237 1539.21L544.372 1534.31L541.384 1530.43L546.083 1529.04L548.852 1525Z" fill="white" fill-opacity="0.3"/>
<path d="M50.7089 4405L53.075 4408.45L57.0895 4409.64L54.5373 4412.95L54.6523 4417.14L50.7089 4415.73L46.7655 4417.14L46.8806 4412.95L44.3284 4409.64L48.3429 4408.45L50.7089 4405Z" fill="white" fill-opacity="0.5"/>
<path d="M56.7002 126L59.7685 130.477L64.9746 132.012L61.6649 136.313L61.8141 141.739L56.7002 139.92L51.5864 141.739L51.7356 136.313L48.4258 132.012L53.6319 130.477L56.7002 126Z" fill="white" fill-opacity="0.5"/>
<path d="M1041.49 3140L1043.78 3143.34L1047.66 3144.48L1045.19 3147.69L1045.3 3151.74L1041.49 3150.38L1037.67 3151.74L1037.79 3147.69L1035.32 3144.48L1039.2 3143.34L1041.49 3140Z" fill="white" fill-opacity="0.4"/>
<path d="M170.123 1346L173.341 1350.69L178.8 1352.3L175.329 1356.81L175.486 1362.5L170.123 1360.6L164.761 1362.5L164.917 1356.81L161.447 1352.3L166.906 1350.69L170.123 1346Z" fill="white" fill-opacity="0.5"/>
<path d="M460.904 6882L463.692 6886.07L468.422 6887.46L465.415 6891.37L465.55 6896.3L460.904 6894.65L456.258 6896.3L456.394 6891.37L453.387 6887.46L458.117 6886.07L460.904 6882Z" fill="white" fill-opacity="0.4"/>
<path d="M437.997 927L440.817 931.115L445.602 932.525L442.56 936.479L442.697 941.466L437.997 939.794L433.296 941.466L433.433 936.479L430.391 932.525L435.176 931.115L437.997 927Z" fill="white" fill-opacity="0.4"/>
<path d="M947.253 5711L949.105 5713.7L952.248 5714.63L950.25 5717.23L950.34 5720.5L947.253 5719.4L944.165 5720.5L944.255 5717.23L942.257 5714.63L945.4 5713.7L947.253 5711Z" fill="white" fill-opacity="0.3"/>
<path d="M302.754 2211L305.135 2214.48L309.177 2215.67L306.607 2219.01L306.723 2223.22L302.754 2221.81L298.784 2223.22L298.9 2219.01L296.331 2215.67L300.372 2214.48L302.754 2211Z" fill="white" fill-opacity="0.4"/>
<path d="M428.516 6236L431.519 6240.38L436.615 6241.88L433.376 6246.09L433.522 6251.41L428.516 6249.63L423.51 6251.41L423.656 6246.09L420.417 6241.88L425.513 6240.38L428.516 6236Z" fill="white" fill-opacity="0.6"/>
<path d="M808.297 4091L811.223 4095.27L816.188 4096.73L813.031 4100.84L813.174 4106.01L808.297 4104.28L803.42 4106.01L803.562 4100.84L800.406 4096.73L805.371 4095.27L808.297 4091Z" fill="white" fill-opacity="0.4"/>
<path d="M749.816 1653L751.867 1655.99L755.347 1657.02L753.135 1659.89L753.235 1663.52L749.816 1662.31L746.397 1663.52L746.497 1659.89L744.285 1657.02L747.765 1655.99L749.816 1653Z" fill="white" fill-opacity="0.4"/>
<path d="M520.286 1983L522.503 1986.23L526.265 1987.34L523.873 1990.45L523.981 1994.37L520.286 1993.06L516.591 1994.37L516.699 1990.45L514.308 1987.34L518.069 1986.23L520.286 1983Z" fill="white" fill-opacity="0.3"/>
<path d="M29.1447 2997L32.3698 3001.71L37.8418 3003.32L34.363 3007.84L34.5198 3013.54L29.1447 3011.63L23.7696 3013.54L23.9264 3007.84L20.4476 3003.32L25.9196 3001.71L29.1447 2997Z" fill="white" fill-opacity="0.5"/>
<path d="M222.889 2491L226.023 2495.57L231.342 2497.14L227.961 2501.54L228.113 2507.08L222.889 2505.22L217.664 2507.08L217.817 2501.54L214.435 2497.14L219.754 2495.57L222.889 2491Z" fill="white" fill-opacity="0.3"/>
<path d="M700.588 2645L703.264 2648.9L707.805 2650.24L704.918 2654L705.049 2658.73L700.588 2657.14L696.128 2658.73L696.258 2654L693.371 2650.24L697.912 2648.9L700.588 2645Z" fill="white" fill-opacity="0.5"/>
<path d="M39.0971 3384L42.3054 3388.68L47.749 3390.29L44.2882 3394.78L44.4443 3400.46L39.0971 3398.56L33.75 3400.46L33.906 3394.78L30.4452 3390.29L35.8888 3388.68L39.0971 3384Z" fill="white" fill-opacity="0.5"/>
<path d="M732.006 5364L734.476 5367.61L738.668 5368.84L736.003 5372.3L736.123 5376.67L732.006 5375.21L727.888 5376.67L728.008 5372.3L725.343 5368.84L729.535 5367.61L732.006 5364Z" fill="white" fill-opacity="0.3"/>
<path d="M458.985 1312L462.506 1317.14L468.481 1318.9L464.683 1323.84L464.854 1330.06L458.985 1327.98L453.116 1330.06L453.287 1323.84L449.489 1318.9L455.464 1317.14L458.985 1312Z" fill="white" fill-opacity="0.5"/>
<path d="M794.307 6454L796.179 6456.73L799.354 6457.67L797.335 6460.29L797.426 6463.6L794.307 6462.49L791.188 6463.6L791.279 6460.29L789.26 6457.67L792.435 6456.73L794.307 6454Z" fill="white" fill-opacity="0.4"/>
<path d="M498.775 425L500.811 427.972L504.267 428.99L502.07 431.845L502.169 435.447L498.775 434.24L495.38 435.447L495.479 431.845L493.283 428.99L496.738 427.972L498.775 425Z" fill="white" fill-opacity="0.3"/>
<path d="M326.872 4773L329.648 4777.05L334.359 4778.44L331.364 4782.33L331.499 4787.24L326.872 4785.6L322.245 4787.24L322.38 4782.33L319.385 4778.44L324.096 4777.05L326.872 4773Z" fill="white" fill-opacity="0.4"/>
<path d="M600.853 1173L603.27 1176.53L607.371 1177.74L604.764 1181.12L604.882 1185.4L600.853 1183.97L596.825 1185.4L596.943 1181.12L594.335 1177.74L598.436 1176.53L600.853 1173Z" fill="white" fill-opacity="0.4"/>
<path d="M372.167 1976L374.695 1979.69L378.984 1980.95L376.257 1984.5L376.38 1988.97L372.167 1987.47L367.954 1988.97L368.077 1984.5L365.351 1980.95L369.64 1979.69L372.167 1976Z" fill="white" fill-opacity="0.4"/>
<path d="M704.696 4989L706.704 4991.93L710.112 4992.94L707.946 4995.75L708.043 4999.3L704.696 4998.11L701.348 4999.3L701.445 4995.75L699.279 4992.94L702.687 4991.93L704.696 4989Z" fill="white" fill-opacity="0.4"/>
<path d="M155.825 1341L159.29 1346.06L165.169 1347.79L161.431 1352.65L161.6 1358.77L155.825 1356.72L150.05 1358.77L150.218 1352.65L146.481 1347.79L152.36 1346.06L155.825 1341Z" fill="white" fill-opacity="0.3"/>
<path d="M529.417 4838L532.032 4841.82L536.47 4843.12L533.649 4846.79L533.776 4851.42L529.417 4849.87L525.057 4851.42L525.184 4846.79L522.363 4843.12L526.801 4841.82L529.417 4838Z" fill="white" fill-opacity="0.5"/>
<path d="M409.067 6637L411.207 6640.12L414.837 6641.19L412.529 6644.19L412.633 6647.98L409.067 6646.71L405.501 6647.98L405.605 6644.19L403.297 6641.19L406.927 6640.12L409.067 6637Z" fill="white" fill-opacity="0.4"/>
<path d="M305.152 262L307.322 265.166L311.003 266.251L308.663 269.293L308.768 273.129L305.152 271.843L301.536 273.129L301.641 269.293L299.301 266.251L302.982 265.166L305.152 262Z" fill="white" fill-opacity="0.5"/>
<path d="M826.711 2404L830.136 2409L835.946 2410.71L832.252 2415.51L832.419 2421.57L826.711 2419.54L821.003 2421.57L821.17 2415.51L817.475 2410.71L823.286 2409L826.711 2404Z" fill="white" fill-opacity="0.4"/>
<path d="M1087.38 4352L1090.34 4356.31L1095.36 4357.79L1092.17 4361.94L1092.31 4367.17L1087.38 4365.41L1082.46 4367.17L1082.6 4361.94L1079.41 4357.79L1084.43 4356.31L1087.38 4352Z" fill="white" fill-opacity="0.5"/>
<path d="M946.936 6014L950.439 6019.11L956.385 6020.87L952.605 6025.78L952.775 6031.97L946.936 6029.9L941.096 6031.97L941.266 6025.78L937.486 6020.87L943.432 6019.11L946.936 6014Z" fill="white" fill-opacity="0.4"/>
<path d="M583.116 4804L585.626 4807.66L589.884 4808.92L587.177 4812.44L587.299 4816.87L583.116 4815.39L578.933 4816.87L579.055 4812.44L576.348 4808.92L580.607 4807.66L583.116 4804Z" fill="white" fill-opacity="0.5"/>
<path d="M93.5567 6497L96.2217 6500.89L100.743 6502.22L97.8687 6505.96L97.9984 6510.67L93.5567 6509.09L89.115 6510.67L89.2446 6505.96L86.3698 6502.22L90.8916 6500.89L93.5567 6497Z" fill="white" fill-opacity="0.5"/>
<path d="M1059.61 829L1062.65 833.432L1067.81 834.952L1064.53 839.211L1064.68 844.582L1059.61 842.782L1054.55 844.582L1054.7 839.211L1051.42 834.952L1056.58 833.432L1059.61 829Z" fill="white" fill-opacity="0.6"/>
<path d="M190.459 953L192.737 956.324L196.601 957.463L194.144 960.656L194.255 964.684L190.459 963.334L186.662 964.684L186.773 960.656L184.316 957.463L188.181 956.324L190.459 953Z" fill="white" fill-opacity="0.3"/>
<path d="M322.336 1101L324.923 1104.77L329.312 1106.07L326.522 1109.7L326.648 1114.27L322.336 1112.74L318.024 1114.27L318.15 1109.7L315.359 1106.07L319.749 1104.77L322.336 1101Z" fill="white" fill-opacity="0.6"/>
<path d="M460.419 6311L463.036 6314.82L467.476 6316.13L464.653 6319.8L464.78 6324.42L460.419 6322.87L456.058 6324.42L456.186 6319.8L453.363 6316.13L457.803 6314.82L460.419 6311Z" fill="white" fill-opacity="0.5"/>
<path d="M875.068 6528L876.855 6530.61L879.887 6531.5L877.959 6534.01L878.046 6537.17L875.068 6536.11L872.089 6537.17L872.176 6534.01L870.248 6531.5L873.28 6530.61L875.068 6528Z" fill="white" fill-opacity="0.4"/>
<path d="M179.181 2724L182.067 2728.21L186.962 2729.65L183.85 2733.7L183.99 2738.8L179.181 2737.09L174.372 2738.8L174.513 2733.7L171.4 2729.65L176.296 2728.21L179.181 2724Z" fill="white" fill-opacity="0.5"/>
<path d="M940.604 6101L942.581 6103.88L945.934 6104.87L943.802 6107.64L943.898 6111.14L940.604 6109.97L937.31 6111.14L937.406 6107.64L935.274 6104.87L938.628 6103.88L940.604 6101Z" fill="white" fill-opacity="0.3"/>
<path d="M21.7153 5387L23.731 5389.94L27.1509 5390.95L24.9767 5393.78L25.0747 5397.34L21.7153 5396.14L18.3559 5397.34L18.454 5393.78L16.2797 5390.95L19.6997 5389.94L21.7153 5387Z" fill="white" fill-opacity="0.5"/>
<path d="M427.668 2323L430.373 2326.95L434.961 2328.3L432.044 2332.09L432.176 2336.87L427.668 2335.27L423.161 2336.87L423.293 2332.09L420.375 2328.3L424.964 2326.95L427.668 2323Z" fill="white" fill-opacity="0.4"/>
<path d="M768.278 2134L771.55 2138.77L777.102 2140.41L773.573 2145L773.732 2150.78L768.278 2148.85L762.825 2150.78L762.984 2145L759.454 2140.41L765.006 2138.77L768.278 2134Z" fill="white" fill-opacity="0.4"/>
<path d="M731.81 3083L734.917 3087.53L740.189 3089.09L736.837 3093.44L736.988 3098.94L731.81 3097.1L726.632 3098.94L726.783 3093.44L723.431 3089.09L728.703 3087.53L731.81 3083Z" fill="white" fill-opacity="0.4"/>
<path d="M21.8747 678L24.2992 681.538L28.4129 682.75L25.7976 686.149L25.9155 690.436L21.8747 688.999L17.8338 690.436L17.9518 686.149L15.3365 682.75L19.4502 681.538L21.8747 678Z" fill="white" fill-opacity="0.3"/>
<path d="M19.0353 6633L21.8691 6637.13L26.6774 6638.55L23.6205 6642.53L23.7584 6647.54L19.0353 6645.86L14.3123 6647.54L14.4501 6642.53L11.3933 6638.55L16.2015 6637.13L19.0353 6633Z" fill="white" fill-opacity="0.3"/>
<path d="M408.761 2121L410.793 2123.96L414.24 2124.98L412.049 2127.83L412.147 2131.42L408.761 2130.22L405.375 2131.42L405.474 2127.83L403.282 2124.98L406.729 2123.96L408.761 2121Z" fill="white" fill-opacity="0.5"/>
<path d="M72.5522 6909L74.863 6912.37L78.7838 6913.53L76.2911 6916.77L76.4035 6920.85L72.5522 6919.48L68.7009 6920.85L68.8133 6916.77L66.3207 6913.53L70.2414 6912.37L72.5522 6909Z" fill="white" fill-opacity="0.4"/>
<path d="M719.074 5520L722.275 5524.67L727.705 5526.27L724.253 5530.76L724.408 5536.42L719.074 5534.52L713.741 5536.42L713.896 5530.76L710.444 5526.27L715.874 5524.67L719.074 5520Z" fill="white" fill-opacity="0.5"/>
<path d="M84.5301 2263L87.5384 2267.39L92.6427 2268.89L89.3976 2273.11L89.5439 2278.43L84.5301 2276.65L79.5162 2278.43L79.6625 2273.11L76.4175 2268.89L81.5218 2267.39L84.5301 2263Z" fill="white" fill-opacity="0.3"/>
<rect width="1080" height="7001" fill="black"/>
<circle cx="801.991" cy="662.991" r="6.99117" fill="white" fill-opacity="0.4"/>
<circle cx="1030.22" cy="2400.22" r="5.22135" fill="white" fill-opacity="0.4"/>
<circle cx="118.279" cy="3506.28" r="12.279" fill="white" fill-opacity="0.4"/>
<circle cx="666.346" cy="5389.35" r="7.34651" fill="white" fill-opacity="0.5"/>
<circle cx="182.957" cy="5553.96" r="5.9568" fill="white" fill-opacity="0.4"/>
<circle cx="644.775" cy="3458.78" r="5.77522" fill="white" fill-opacity="0.3"/>
<circle cx="292.258" cy="4908.26" r="11.2577" fill="white" fill-opacity="0.5"/>
<circle cx="988.072" cy="6566.07" r="8.07175" fill="white" fill-opacity="0.5"/>
<circle cx="202.245" cy="1463.25" r="6.24542" fill="white" fill-opacity="0.4"/>
<circle cx="382.005" cy="3830.01" r="9.00539" fill="white" fill-opacity="0.6"/>
<circle cx="227.886" cy="791.886" r="9.88615" fill="white" fill-opacity="0.4"/>
<circle cx="463.639" cy="2482.64" r="6.63923" fill="white" fill-opacity="0.5"/>
<circle cx="892.078" cy="3340.08" r="12.0781" fill="white" fill-opacity="0.4"/>
<circle cx="133.451" cy="3748.45" r="9.45114" fill="white" fill-opacity="0.4"/>
<circle cx="39.8931" cy="5027.89" r="9.89312" fill="white" fill-opacity="0.6"/>
<circle cx="858.933" cy="1339.93" r="7.93291" fill="white" fill-opacity="0.6"/>
<circle cx="703.825" cy="1730.82" r="6.82459" fill="white" fill-opacity="0.4"/>
<circle cx="552.166" cy="3807.17" r="9.1662" fill="white" fill-opacity="0.4"/>
<circle cx="289.306" cy="3289.31" r="9.3062" fill="white" fill-opacity="0.6"/>
<circle cx="996.46" cy="3546.46" r="9.45966" fill="white" fill-opacity="0.6"/>
<circle cx="601.297" cy="285.297" r="7.29717" fill="white" fill-opacity="0.4"/>
<circle cx="48.7822" cy="2150.78" r="11.7822" fill="white" fill-opacity="0.6"/>
<circle cx="171.754" cy="4633.75" r="10.7538" fill="white" fill-opacity="0.5"/>
<circle cx="626.55" cy="4264.55" r="10.5505" fill="white" fill-opacity="0.4"/>
<circle cx="111.785" cy="1534.78" r="5.78494" fill="white" fill-opacity="0.6"/>
<circle cx="813.967" cy="5932.97" r="11.9674" fill="white" fill-opacity="0.4"/>
<circle cx="640.567" cy="6362.57" r="5.56691" fill="white" fill-opacity="0.5"/>
<circle cx="96.9173" cy="1246.92" r="8.91728" fill="white" fill-opacity="0.6"/>
<circle cx="92.8912" cy="6069.89" r="8.89122" fill="white" fill-opacity="0.4"/>
<circle cx="850.781" cy="5903.78" r="9.78143" fill="white" fill-opacity="0.6"/>
<circle cx="471.008" cy="1582.01" r="12.0081" fill="white" fill-opacity="0.4"/>
<circle cx="1024.51" cy="5048.51" r="11.5082" fill="white" fill-opacity="0.4"/>
<circle cx="351.009" cy="2374.01" r="9.00926" fill="white" fill-opacity="0.5"/>
<circle cx="172.178" cy="6503.18" r="5.17813" fill="white" fill-opacity="0.6"/>
<circle cx="469.044" cy="1837.04" r="10.0442" fill="white" fill-opacity="0.4"/>
<circle cx="867.405" cy="1175.41" r="5.40549" fill="white" fill-opacity="0.3"/>
<circle cx="45.5385" cy="4621.54" r="9.53847" fill="white" fill-opacity="0.4"/>
<circle cx="330.042" cy="3244.04" r="6.04151" fill="white" fill-opacity="0.5"/>
<circle cx="138.131" cy="3768.13" r="6.13107" fill="white" fill-opacity="0.4"/>
<circle cx="147.594" cy="4785.59" r="9.59409" fill="white" fill-opacity="0.6"/>
<circle cx="808.44" cy="499.44" r="8.4404" fill="white" fill-opacity="0.5"/>
<circle cx="337.137" cy="4998.14" r="12.1371" fill="white" fill-opacity="0.6"/>
<circle cx="708.943" cy="2510.94" r="8.94287" fill="white" fill-opacity="0.3"/>
<circle cx="322.603" cy="1933.6" r="9.60291" fill="white" fill-opacity="0.6"/>
<circle cx="98.2062" cy="1566.21" r="6.20623" fill="white" fill-opacity="0.3"/>
<circle cx="749.986" cy="526.986" r="8.98601" fill="white" fill-opacity="0.6"/>
<circle cx="603.972" cy="2883.97" r="10.9723" fill="white" fill-opacity="0.5"/>
<circle cx="679.033" cy="1181.03" r="9.03301" fill="white" fill-opacity="0.6"/>
<circle cx="765.986" cy="1625.99" r="7.98577" fill="white" fill-opacity="0.4"/>
<circle cx="1033.99" cy="1979.99" r="11.9877" fill="white" fill-opacity="0.6"/>
<circle cx="699.447" cy="391.447" r="11.4466" fill="white" fill-opacity="0.3"/>
<circle cx="253.919" cy="371.919" r="8.91933" fill="white" fill-opacity="0.5"/>
<circle cx="840.355" cy="6114.35" r="11.3547" fill="white" fill-opacity="0.6"/>
<circle cx="121.472" cy="6647.47" r="10.4719" fill="white" fill-opacity="0.5"/>
<circle cx="408.206" cy="3983.21" r="10.2062" fill="white" fill-opacity="0.6"/>
<circle cx="443.555" cy="827.555" r="9.55491" fill="white" fill-opacity="0.3"/>
<circle cx="254.064" cy="2958.06" r="11.0641" fill="white" fill-opacity="0.5"/>
<circle cx="481.842" cy="4029.84" r="11.8423" fill="white" fill-opacity="0.4"/>
<circle cx="586.3" cy="1151.3" r="11.2997" fill="white" fill-opacity="0.3"/>
<circle cx="17.3897" cy="936.39" r="7.38971" fill="white" fill-opacity="0.4"/>
<circle cx="1051.25" cy="3607.25" r="6.25144" fill="white" fill-opacity="0.3"/>
<circle cx="344.573" cy="5077.57" r="11.5726" fill="white" fill-opacity="0.5"/>
<circle cx="954.129" cy="1589.13" r="11.1294" fill="white" fill-opacity="0.6"/>
<circle cx="548.857" cy="2399.86" r="5.85729" fill="white" fill-opacity="0.3"/>
<circle cx="89.5508" cy="4791.55" r="9.55077" fill="white" fill-opacity="0.6"/>
<circle cx="90.7883" cy="3316.79" r="10.7883" fill="white" fill-opacity="0.5"/>
<circle cx="422.282" cy="6393.28" r="7.28152" fill="white" fill-opacity="0.5"/>
<circle cx="596.502" cy="4598.5" r="9.50226" fill="white" fill-opacity="0.5"/>
<circle cx="538.227" cy="6220.23" r="11.227" fill="white" fill-opacity="0.4"/>
<circle cx="548.037" cy="1268.04" r="11.0372" fill="white" fill-opacity="0.3"/>
<circle cx="688.214" cy="3397.21" r="7.21424" fill="white" fill-opacity="0.4"/>
<circle cx="683.477" cy="2623.48" r="5.47694" fill="white" fill-opacity="0.4"/>
<circle cx="815.12" cy="5290.12" r="5.12047" fill="white" fill-opacity="0.3"/>
<circle cx="755.685" cy="1766.69" r="6.68503" fill="white" fill-opacity="0.4"/>
<circle cx="327.364" cy="5634.36" r="10.3641" fill="white" fill-opacity="0.5"/>
<circle cx="911.492" cy="4079.49" r="7.49204" fill="white" fill-opacity="0.3"/>
<circle cx="811.385" cy="5366.38" r="6.38487" fill="white" fill-opacity="0.4"/>
<circle cx="211.428" cy="3583.43" r="10.4278" fill="white" fill-opacity="0.4"/>
<circle cx="151.127" cy="3749.13" r="7.1268" fill="white" fill-opacity="0.4"/>
<circle cx="115.696" cy="3210.7" r="8.69598" fill="white" fill-opacity="0.6"/>
<circle cx="370.831" cy="5218.83" r="11.8312" fill="white" fill-opacity="0.5"/>
<circle cx="242.35" cy="4659.35" r="6.35027" fill="white" fill-opacity="0.4"/>
<circle cx="388.154" cy="5032.15" r="12.1535" fill="white" fill-opacity="0.6"/>
<circle cx="1061.51" cy="3109.51" r="6.50902" fill="white" fill-opacity="0.6"/>
<circle cx="154.91" cy="5896.91" r="7.90983" fill="white" fill-opacity="0.5"/>
<circle cx="127.345" cy="3402.35" r="9.34533" fill="white" fill-opacity="0.5"/>
<circle cx="448.663" cy="2484.66" r="7.66274" fill="white" fill-opacity="0.5"/>
<circle cx="204.161" cy="1100.16" r="5.16134" fill="white" fill-opacity="0.4"/>
<circle cx="701.03" cy="2602.03" r="9.02965" fill="white" fill-opacity="0.6"/>
<circle cx="207.421" cy="3585.42" r="9.42103" fill="white" fill-opacity="0.6"/>
<circle cx="53.6642" cy="4969.66" r="9.66422" fill="white" fill-opacity="0.6"/>
<circle cx="398.855" cy="1091.85" r="7.85498" fill="white" fill-opacity="0.6"/>
<circle cx="447.374" cy="6902.37" r="11.3745" fill="white" fill-opacity="0.5"/>
<circle cx="549.259" cy="1203.26" r="6.25881" fill="white" fill-opacity="0.5"/>
<circle cx="1070.44" cy="116.44" r="5.44004" fill="white" fill-opacity="0.5"/>
<circle cx="715.987" cy="105.987" r="7.98731" fill="white" fill-opacity="0.5"/>
<circle cx="936.143" cy="2727.14" r="8.14261" fill="white" fill-opacity="0.6"/>
<circle cx="212.662" cy="2023.66" r="9.66201" fill="white" fill-opacity="0.5"/>
<circle cx="800.993" cy="2577.99" r="5.99268" fill="white" fill-opacity="0.5"/>
<circle cx="953.453" cy="1548.45" r="12.4526" fill="white" fill-opacity="0.6"/>
<circle cx="215.428" cy="1919.43" r="9.42826" fill="white" fill-opacity="0.4"/>
<circle cx="173.667" cy="3048.67" r="5.66665" fill="white" fill-opacity="0.5"/>
<circle cx="817.831" cy="3711.83" r="11.8311" fill="white" fill-opacity="0.3"/>
<circle cx="861.454" cy="1973.45" r="6.45354" fill="white" fill-opacity="0.3"/>
<circle cx="222.798" cy="4252.8" r="8.79806" fill="white" fill-opacity="0.5"/>
<circle cx="300.012" cy="2548.01" r="6.01193" fill="white" fill-opacity="0.6"/>
<circle cx="669.403" cy="4504.4" r="10.4026" fill="white" fill-opacity="0.3"/>
<circle cx="726.775" cy="122.775" r="8.77499" fill="white" fill-opacity="0.6"/>
<circle cx="677.828" cy="5377.83" r="8.82751" fill="white" fill-opacity="0.6"/>
<circle cx="216.373" cy="1682.37" r="10.3727" fill="white" fill-opacity="0.5"/>
<circle cx="593.214" cy="5195.21" r="6.21404" fill="white" fill-opacity="0.6"/>
<circle cx="434.768" cy="3239.77" r="7.7685" fill="white" fill-opacity="0.3"/>
<circle cx="245.011" cy="6786.01" r="7.0109" fill="white" fill-opacity="0.5"/>
<circle cx="744.514" cy="1983.51" r="7.51391" fill="white" fill-opacity="0.5"/>
<circle cx="696.165" cy="6412.17" r="8.16487" fill="white" fill-opacity="0.5"/>
<circle cx="614.804" cy="5805.8" r="6.80441" fill="white" fill-opacity="0.6"/>
<circle cx="19.9228" cy="5637.92" r="5.92279" fill="white" fill-opacity="0.6"/>
<circle cx="467.074" cy="5975.07" r="5.07429" fill="white" fill-opacity="0.4"/>
<circle cx="484.21" cy="4487.21" r="11.21" fill="white" fill-opacity="0.3"/>
<circle cx="482.149" cy="1470.15" r="5.14918" fill="white" fill-opacity="0.6"/>
<circle cx="493.151" cy="4609.15" r="6.15086" fill="white" fill-opacity="0.5"/>
<circle cx="974.783" cy="111.783" r="6.78345" fill="white" fill-opacity="0.3"/>
<circle cx="53.6736" cy="6924.67" r="7.67357" fill="white" fill-opacity="0.5"/>
<circle cx="132.638" cy="5195.64" r="11.6382" fill="white" fill-opacity="0.5"/>
<circle cx="168.357" cy="1924.36" r="9.35728" fill="white" fill-opacity="0.6"/>
<circle cx="456.558" cy="3568.56" r="8.55788" fill="white" fill-opacity="0.4"/>
<circle cx="883.837" cy="3972.84" r="11.8368" fill="white" fill-opacity="0.3"/>
<circle cx="176.877" cy="4940.88" r="10.8765" fill="white" fill-opacity="0.4"/>
<circle cx="40.5323" cy="965.532" r="7.53225" fill="white" fill-opacity="0.3"/>
<circle cx="685.547" cy="4627.55" r="10.5469" fill="white" fill-opacity="0.3"/>
<circle cx="932.151" cy="3613.15" r="8.15118" fill="white" fill-opacity="0.4"/>
<circle cx="767.044" cy="5358.04" r="11.0442" fill="white" fill-opacity="0.5"/>
<circle cx="491.605" cy="6277.6" r="9.60497" fill="white" fill-opacity="0.6"/>
<circle cx="73.7603" cy="920.76" r="7.76032" fill="white" fill-opacity="0.5"/>
<circle cx="800.151" cy="3338.15" r="5.15128" fill="white" fill-opacity="0.5"/>
<circle cx="118.862" cy="2320.86" r="5.86192" fill="white" fill-opacity="0.3"/>
<circle cx="714.323" cy="4294.32" r="10.3226" fill="white" fill-opacity="0.5"/>
<circle cx="79.3903" cy="6265.39" r="10.3903" fill="white" fill-opacity="0.4"/>
<circle cx="207.326" cy="3044.33" r="10.3257" fill="white" fill-opacity="0.4"/>
<circle cx="588.656" cy="860.656" r="11.656" fill="white" fill-opacity="0.3"/>
<circle cx="1005.88" cy="2149.88" r="11.8773" fill="white" fill-opacity="0.5"/>
<circle cx="958.153" cy="3171.15" r="10.1531" fill="white" fill-opacity="0.4"/>
<circle cx="739.172" cy="2224.17" r="11.1718" fill="white" fill-opacity="0.5"/>
<circle cx="141.297" cy="4372.3" r="9.29683" fill="white" fill-opacity="0.4"/>
<circle cx="816.512" cy="4567.51" r="11.5124" fill="white" fill-opacity="0.4"/>
<circle cx="223.567" cy="2548.57" r="10.5674" fill="white" fill-opacity="0.4"/>
<circle cx="308.369" cy="4391.37" r="11.3685" fill="white" fill-opacity="0.3"/>
<circle cx="249.008" cy="5494.01" r="5.00822" fill="white" fill-opacity="0.5"/>
<circle cx="501.202" cy="6453.2" r="6.2021" fill="white" fill-opacity="0.3"/>
<circle cx="421.963" cy="6164.96" r="9.96283" fill="white" fill-opacity="0.6"/>
<circle cx="941.29" cy="6280.29" r="11.2895" fill="white" fill-opacity="0.5"/>
<circle cx="446.468" cy="1581.47" r="12.4676" fill="white" fill-opacity="0.5"/>
<circle cx="496.376" cy="6243.38" r="10.3761" fill="white" fill-opacity="0.5"/>
<circle cx="1019.27" cy="4668.27" r="10.2679" fill="white" fill-opacity="0.4"/>
<circle cx="126.74" cy="2946.74" r="6.74044" fill="white" fill-opacity="0.4"/>
<circle cx="159.147" cy="5173.15" r="6.14685" fill="white" fill-opacity="0.6"/>
<circle cx="125.31" cy="5409.31" r="10.3101" fill="white" fill-opacity="0.3"/>
<circle cx="566.684" cy="555.684" r="5.68407" fill="white" fill-opacity="0.4"/>
<circle cx="51.7227" cy="5012.72" r="5.72272" fill="white" fill-opacity="0.6"/>
<circle cx="101.334" cy="6067.33" r="8.33427" fill="white" fill-opacity="0.4"/>
<circle cx="808.756" cy="1187.76" r="8.75639" fill="white" fill-opacity="0.6"/>
<circle cx="334.752" cy="6298.75" r="11.7521" fill="white" fill-opacity="0.5"/>
<circle cx="1010.19" cy="317.193" r="9.193" fill="white" fill-opacity="0.5"/>
<circle cx="299.813" cy="2262.81" r="9.81288" fill="white" fill-opacity="0.4"/>
<circle cx="338.656" cy="5837.66" r="9.65639" fill="white" fill-opacity="0.5"/>
<circle cx="303.113" cy="682.113" r="10.1128" fill="white" fill-opacity="0.4"/>
<circle cx="114.009" cy="5312.01" r="8.00861" fill="white" fill-opacity="0.5"/>
<circle cx="165.429" cy="4512.43" r="7.42867" fill="white" fill-opacity="0.3"/>
<circle cx="1063" cy="6786" r="11.9998" fill="white" fill-opacity="0.5"/>
<circle cx="876.262" cy="6652.26" r="10.2622" fill="white" fill-opacity="0.6"/>
<circle cx="635.319" cy="6817.32" r="10.3192" fill="white" fill-opacity="0.3"/>
<circle cx="178.959" cy="3623.96" r="5.95862" fill="white" fill-opacity="0.5"/>
<circle cx="352.217" cy="4204.22" r="8.21733" fill="white" fill-opacity="0.5"/>
<circle cx="455.355" cy="2574.35" r="7.35492" fill="white" fill-opacity="0.5"/>
<circle cx="307.318" cy="146.318" r="8.31842" fill="white" fill-opacity="0.4"/>
<circle cx="827.784" cy="1718.78" r="5.78421" fill="white" fill-opacity="0.6"/>
<circle cx="515.678" cy="3102.68" r="5.67831" fill="white" fill-opacity="0.5"/>
<circle cx="960.821" cy="6290.82" r="9.82146" fill="white" fill-opacity="0.5"/>
<circle cx="122.932" cy="6354.93" r="10.9318" fill="white" fill-opacity="0.4"/>
<circle cx="806.001" cy="5326" r="6.00067" fill="white" fill-opacity="0.4"/>
<circle cx="682.846" cy="55.8457" r="5.84574" fill="white" fill-opacity="0.5"/>
<circle cx="353.745" cy="6893.75" r="5.74489" fill="white" fill-opacity="0.4"/>
<circle cx="631.23" cy="1357.23" r="12.2295" fill="white" fill-opacity="0.4"/>
<circle cx="693.992" cy="719.992" r="10.9916" fill="white" fill-opacity="0.4"/>
<circle cx="670.755" cy="1096.75" r="7.75456" fill="white" fill-opacity="0.3"/>
<circle cx="696.194" cy="337.194" r="6.1942" fill="white" fill-opacity="0.5"/>
<circle cx="312.362" cy="3988.36" r="12.3616" fill="white" fill-opacity="0.4"/>
<circle cx="609.156" cy="5376.16" r="5.15572" fill="white" fill-opacity="0.4"/>
<circle cx="687.481" cy="3243.48" r="9.48088" fill="white" fill-opacity="0.4"/>
<circle cx="789.495" cy="3879.5" r="12.4951" fill="white" fill-opacity="0.4"/>
<circle cx="76.6408" cy="4001.64" r="11.6408" fill="white" fill-opacity="0.6"/>
<circle cx="622.056" cy="125.056" r="8.05606" fill="white" fill-opacity="0.5"/>
<circle cx="493.959" cy="1059.96" r="11.9589" fill="white" fill-opacity="0.4"/>
<circle cx="419.624" cy="5527.62" r="7.62361" fill="white" fill-opacity="0.4"/>
<circle cx="638.145" cy="634.145" r="9.14484" fill="white" fill-opacity="0.6"/>
<circle cx="1001.91" cy="4509.91" r="6.91126" fill="white" fill-opacity="0.4"/>
<circle cx="287.864" cy="1832.86" r="9.86395" fill="white" fill-opacity="0.5"/>
<circle cx="614.1" cy="6631.1" r="6.09998" fill="white" fill-opacity="0.3"/>
<circle cx="484.626" cy="5914.63" r="8.62605" fill="white" fill-opacity="0.6"/>
<circle cx="745.291" cy="2193.29" r="8.2908" fill="white" fill-opacity="0.3"/>
</g>
<defs>
<clipPath id="clip0_1_2">
<rect width="1080" height="7001" fill="white"/>
</clipPath>
</defs>
</svg>
